# xmcd CD Database Entry
#
# Track frame offsets:
# 150
# 16641
# 31014
# 43385
# 54294
# 73310
# 89986
# 104949
# 122344
# 133892
# 148002
# 160584
# 172921
# 185873
# 197059
# 213379
# 226667
# 243053
# 255635
# 265514
# 281704
# 295244
# 306527
#
# Disc length: 4328 seconds
#
# Revision: 2
# Processed by: cddbd v1.4PL0 Copyright (c) Steve Scherf et al.
# Submitted via: tcd 2.0b
#
DISCID=5810e617
DTITLE=Любими български - Хора и Ръченици
DYEAR=1900
DGENRE=
TTITLE0=Северна България - Дунавско хоро
TTITLE1=Тракия - Първомайска ръченица
TTITLE2=Шоплук - Ситно свогенско хоро
TTITLE3=Северна България - Празнично хоро
TTITLE4=Македония - Мъжко хоро
TTITLE5=Северна България - Върбишка ръченица
TTITLE6=Северна България - Еленино хоро
TTITLE7=Тракия - Бачковско хоро
TTITLE8=Северна България - Ръченица
TTITLE9=Тракия - Червенска ръченица
TTITLE10=Северна България - Черкезката
TTITLE11=Добруджа - Данец
TTITLE12=Северна България - Ситно крайдунавско хоро
TTITLE13=Шоплук - Огнено хоро
TTITLE14=Тракия - Керановско хоро
TTITLE15=Македония - Македонско хоро
TTITLE16=Родопи - Сворнато хоро
TTITLE17=Северна България - Право северняшко хоро
TTITLE18=Северна България - Сватбарска ръченица
TTITLE19=Северна България - Свищовско хоро
TTITLE20=Странджа - Жоркината
TTITLE21=Северозападна България - Северняшко влашко хоро
TTITLE22=Северна България - Дайчово хоро
EXTD=GR 019638 006-1
EXTT0=муз.: Дико Илиев, изп.: Духов оркестър, диригент: Христо Тоне
EXTT0=в
EXTT1=изп.: Първомайска група, ръководител: Стефан Филипов
EXTT2=муз. и изп.: Йордан Йорданов - акордеон, обр. и диригент: Хри
EXTT2=стофор Раданов, съпр. оркестър
EXTT3=муз.: Димитър Кротев, изп.: оркестър Веселие - гр. Габрово, р
EXTT3=ъководител: Димитър Кротев
EXTT4=муз. и изп.: Андрей Зарев - акордеон, обработка и диригент: Д
EXTT4=имитър Пенев, съпр. оркестър
EXTT5=изп.: Димитър Пасков - кларинет, обработка и диригент: Иван Ш
EXTT5=ибилев, съпр. оркестър
EXTT6=муз.: Иван Чукоев, изп.: оркестър Чанове - гр. Русе, ръководи
EXTT6=тел: Иван Чукоев
EXTT7=изп.: Първомайска група, ръководител: Стефан Филипов
EXTT8=муз.: Дико Илиев, изп.: Духов оркестър, диригент: Христо Тоне
EXTT8=в
EXTT9=изп.: Леновската група, ръководител: Никола Янков, обработкаи
EXTT9=диригент: Коста Колев
EXTT10=изп.: Русенската народна група, обработка и диригент: ХристоТ
EXTT10=одоров
EXTT11=изп.: оркестър Бисери - гр. Добрич, обработка и ръководител:Ж
EXTT11=ивко Желев
EXTT12=изп.: оркестър Чанове - гр. Русе, ръководител: Иван Чукоев, о
EXTT12=бработка и диригент: Христо Тодоров
EXTT13=муз.: Румен Сираков, изп.: Румен Сираков - тамбура и Георги Е
EXTT13=милов - акордеон, с оркестър
EXTT14=изп.: Леновската група, ръководител: Никола Янков, обработкаи
EXTT14=диригент: Коста Колев
EXTT15=изп.: Ибро Лолов и Диди Кушлева - акордеон, обработка: Диди К
EXTT15=ушлева
EXTT16=изп.: Стефан Захманов - кабагайда
EXTT17=изп.: Русенската народна група, обработка и диригент: ХристоТ
EXTT17=одоров
EXTT18=муз.: Дико Илиев, изп.: Духов оркестър, диригент: Христо Тоне
EXTT18=в
EXTT19=муз. и изп.: Любчо Николов - акордеон, обработка и диригент:Х
EXTT19=ристофор Раданов, съпр. оркестър
EXTT20=изп.: Странджанската група
EXTT21=муз.: Димитър Кротев, изп.: оркестър Веселие - гр. Габрово, р
EXTT21=ъководител: Димитър Кротев
EXTT22=муз.: Дико Илиев, изп.: Духов оркестър, диригент: Христо Тоне
EXTT22=в
PLAYORDER=
